<svg width="155" height="178" viewBox="0 0 155 178" fill="none" xmlns="http://www.w3.org/2000/svg">
<path d="M74.5874 0.773234C76.3731 -0.257746 78.5732 -0.257744 80.3589 0.773236L152.061 42.1702C153.846 43.2012 154.946 45.1065 154.946 47.1685V129.962C154.946 132.024 153.846 133.93 152.061 134.961L80.3589 176.358C78.5732 177.389 76.3731 177.389 74.5874 176.358L2.88575 134.961C1.10004 133.93 0 132.024 0 129.962V47.1685C0 45.1065 1.10004 43.2012 2.88575 42.1702L74.5874 0.773234Z" fill="#151718"/>
<path fill-rule="evenodd" clip-rule="evenodd" d="M149.175 47.1685L77.4732 5.7715L5.7715 47.1685L5.7715 129.962L77.4732 171.359L149.175 129.962V47.1685ZM80.3589 0.773236C78.5732 -0.257744 76.3731 -0.257746 74.5874 0.773234L2.88575 42.1702C1.10004 43.2012 0 45.1065 0 47.1685V129.962C0 132.024 1.10004 133.93 2.88575 134.961L74.5874 176.358C76.3731 177.389 78.5732 177.389 80.3589 176.358L152.061 134.961C153.846 133.93 154.946 132.024 154.946 129.962V47.1685C154.946 45.1065 153.846 43.2012 152.061 42.1702L80.3589 0.773236Z" fill="#FFD900"/>
</svg>
