<?xml version="1.0" encoding="utf-8"?>
<!-- Generator: Adobe Illustrator 23.0.6, SVG Export Plug-In . SVG Version: 6.00 Build 0)  -->
<svg version="1.1" id="Capa_1" xmlns="http://www.w3.org/2000/svg" xmlns:xlink="http://www.w3.org/1999/xlink" x="0px" y="0px"
	 viewBox="0 0 316.5 458.4" style="enable-background:new 0 0 316.5 458.4;" xml:space="preserve">
<style type="text/css">
	.st0{fill:#FFF800;}
</style>
<path class="st0" d="M74.6,141.5c1.8-1,4-1,5.8,0l71.7,41.4c1.8,1,2.9,2.9,2.9,5v82.8c0,2.1-1.1,4-2.9,5l-71.7,41.4
	c-1.8,1-4,1-5.8,0L2.9,275.7c-1.8-1-2.9-2.9-2.9-5v-82.8c0-2.1,1.1-4,2.9-5L74.6,141.5z"/>
<path class="st0" d="M236.2,141.5c1.8-1,4-1,5.8,0l71.7,41.4c1.8,1,2.9,2.9,2.9,5v82.8c0,2.1-1.1,4-2.9,5l-71.7,41.4
	c-1.8,1-4,1-5.8,0l-71.7-41.4c-1.8-1-2.9-2.9-2.9-5v-82.8c0-2.1,1.1-4,2.9-5L236.2,141.5z"/>
<path class="st0" d="M155.4,1c1.8-1,4-1,5.8,0l71.7,41.4c1.8,1,2.9,2.9,2.9,5v82.8c0,2.1-1.1,4-2.9,5l-71.7,41.4c-1.8,1-4,1-5.8,0
	l-71.7-41.4c-1.8-1-2.9-2.9-2.9-5V47.4c0-2.1,1.1-4,2.9-5L155.4,1z"/>
<path class="st0" d="M155.4,281.3c1.8-1,4-1,5.8,0l71.7,41.4c1.8,1,2.9,2.9,2.9,5v82.8c0,2.1-1.1,4-2.9,5l-71.7,41.4
	c-1.8,1-4,1-5.8,0l-71.7-41.4c-1.8-1-2.9-2.9-2.9-5v-82.8c0-2.1,1.1-4,2.9-5L155.4,281.3z"/>
</svg>
